<svg width="22" height="18" viewBox="0 0 22 18" fill="none" xmlns="http://www.w3.org/2000/svg">
<path d="M9.66406 5.46094C9.66406 5.91018 9.70912 6.34888 9.7959 6.77246H2.11914C1.91025 6.77246 1.74023 6.94248 1.74023 7.15137V15.2559C1.74027 15.4647 1.91027 15.6338 2.11914 15.6338H17.7881C17.9968 15.6337 18.166 15.4646 18.166 15.2559V11.6445C18.6635 11.4836 19.1344 11.2647 19.5713 10.9951V15.2559C19.5713 16.2405 18.7727 17.0389 17.7881 17.0391H2.11914C1.1344 17.0391 0.335971 16.2406 0.335938 15.2559V7.15137C0.335938 6.16661 1.13438 5.36816 2.11914 5.36816H9.66602C9.66558 5.39904 9.66406 5.42996 9.66406 5.46094Z" fill="#444444"/>
<path d="M11.0449 13.7657C11.0449 13.983 11.2211 14.1592 11.4384 14.1592H11.4805H11.5227C11.74 14.1592 11.9161 13.983 11.9161 13.7657C11.9161 13.5485 11.74 13.3723 11.5227 13.3723H11.4805H11.4384C11.2211 13.3723 11.0449 13.5485 11.0449 13.7657Z" fill="#444444"/>
<path d="M15.9715 13.8516H12.9805" stroke="#444444" stroke-width="1.00723" stroke-linecap="round" stroke-linejoin="round"/>
<path d="M6.65511 8.96094H3.66406M8.64914 10.3912H3.66406" stroke="#444444" stroke-width="1.00723" stroke-linecap="round" stroke-linejoin="round"/>
<path d="M17.3097 5.66752L15.9136 4.27148L14.5176 5.66752" stroke="#444444" stroke-miterlimit="10" stroke-linecap="round" stroke-linejoin="round"/>
<path d="M15.9141 8.18128V4.31055" stroke="#444444" stroke-miterlimit="10" stroke-linecap="round" stroke-linejoin="round"/>
<path d="M15.9342 10.5863C18.339 10.5863 20.2884 8.63684 20.2884 6.2321C20.2884 3.82736 18.339 1.87793 15.9342 1.87793C13.5295 1.87793 11.5801 3.82736 11.5801 6.2321C11.5801 8.63684 13.5295 10.5863 15.9342 10.5863Z" stroke="#6A6A6A" stroke-linecap="round" stroke-linejoin="round"/>
<path d="M20.7467 11.0446L19.8301 10.1279" stroke="#6A6A6A" stroke-linecap="round" stroke-linejoin="round"/>
</svg>
